<?xml version="1.0" encoding="UTF-8" standalone="no"?><!DOCTYPE svg PUBLIC "-//W3C//DTD SVG 1.1//EN" "http://www.w3.org/Graphics/SVG/1.1/DTD/svg11.dtd"><svg width="100%" height="100%" viewBox="0 0 512 512" version="1.1" xmlns="http://www.w3.org/2000/svg" xmlns:xlink="http://www.w3.org/1999/xlink" xml:space="preserve" xmlns:serif="http://www.serif.com/" style="fill-rule:evenodd;clip-rule:evenodd;stroke-linecap:round;stroke-linejoin:round;stroke-miterlimit:1.5;"><g><path d="M353.864,19.444c1.412,0.584 138.022,137.076 138.607,138.486c0.585,1.411 0.668,194.523 0.085,195.934c-0.584,1.412 -137.076,138.022 -138.486,138.607c-1.411,0.585 -194.523,0.668 -195.934,0.085c-1.412,-0.584 -138.022,-137.076 -138.607,-138.486c-0.585,-1.411 -0.668,-194.523 -0.085,-195.934c0.584,-1.412 137.076,-138.022 138.486,-138.607c1.411,-0.585 194.523,-0.668 195.934,-0.085Z"/><path d="M353.864,19.444c1.412,0.584 138.022,137.076 138.607,138.486c0.585,1.411 0.668,194.523 0.085,195.934c-0.584,1.412 -137.076,138.022 -138.486,138.607c-1.411,0.585 -194.523,0.668 -195.934,0.085c-1.412,-0.584 -138.022,-137.076 -138.607,-138.486c-0.585,-1.411 -0.668,-194.523 -0.085,-195.934c0.584,-1.412 137.076,-138.022 138.486,-138.607c1.411,-0.585 194.523,-0.668 195.934,-0.085Z" style="stroke:#f31e1e;stroke-width:5px;"/></g><g transform="matrix(2.70155,0,0,2.70155,-371.16,-257.388)"><g transform="matrix(39.0893,0,0,39.0893,199.539,157)"><path d="M-0.023,-0c0.02,-0.075 0.042,-0.15 0.066,-0.227c0.025,-0.077 0.055,-0.169 0.092,-0.276c0.036,-0.107 0.061,-0.181 0.074,-0.222c0.004,-0.006 0.006,-0.01 0.008,-0.011l0.082,-0c0.019,-0 0.047,-0.001 0.085,-0.001c0.037,-0.001 0.066,-0.001 0.085,-0.001l0.082,-0c0.005,-0 0.009,-0 0.012,-0c0.003,0 0.007,0.001 0.012,0.001c0.004,0.001 0.008,0.002 0.011,0.003c0.002,0.001 0.005,0.003 0.007,0.006c0.002,0.003 0.003,0.006 0.003,0.009l0.225,0.714c-0,0.006 -0.003,0.011 -0.007,0.013c-0.005,0.002 -0.014,0.004 -0.027,0.004l-0.045,-0c-0.013,-0 -0.032,-0 -0.058,0c-0.026,0.001 -0.045,0.001 -0.058,0.001c-0.004,-0 -0.012,-0 -0.024,0c-0.012,0.001 -0.022,0.001 -0.03,0.001c-0.008,-0 -0.017,-0.001 -0.027,-0.002c-0.01,-0 -0.018,-0.002 -0.024,-0.005c-0.006,-0.003 -0.01,-0.006 -0.011,-0.011l-0,-0.032c-0.003,-0.016 -0.009,-0.031 -0.017,-0.045c-0.008,-0.014 -0.017,-0.021 -0.026,-0.021l-0.168,0l-0.026,0.104c-0.003,0.008 -0.021,0.012 -0.054,0.012l-0.039,-0c-0.014,-0 -0.035,0 -0.063,0.001c-0.027,0.001 -0.048,0.002 -0.062,0.002l-0.014,-0c-0.005,-0 -0.045,0.001 -0.051,0.001c-0.002,-0.003 -0.007,-0.009 -0.013,-0.018Zm0.338,-0.296l0.014,0.023l0.032,-0c0.026,-0 0.05,-0.002 0.072,-0.005c0.022,-0.003 0.032,-0.008 0.032,-0.015l-0.063,-0.281c-0.006,-0 -0.013,0.011 -0.023,0.033c-0.01,0.022 -0.018,0.047 -0.025,0.075l-0.039,0.17Z" style="fill:#eadbea;fill-rule:nonzero;"/></g><g transform="matrix(39.0893,0,0,39.0893,230.803,157)"><path d="M0.052,-0.717c-0,-0.003 0.002,-0.007 0.006,-0.009c0.004,-0.003 0.01,-0.005 0.018,-0.007c0.007,-0.001 0.015,-0.002 0.023,-0.003c0.008,-0.001 0.017,-0.002 0.028,-0.002c0.011,-0.001 0.02,-0.001 0.027,-0.001c0.007,0 0.016,0 0.025,0c0.009,0.001 0.015,0.001 0.016,0.001l0.055,-0c0.011,-0 0.026,-0.001 0.045,-0.001c0.02,-0.001 0.034,-0.001 0.043,-0.001c0.155,-0 0.266,0.026 0.333,0.08l0.017,0.015c0.006,0.006 0.012,0.012 0.019,0.021c0.007,0.008 0.015,0.021 0.025,0.037c0.01,0.017 0.019,0.035 0.027,0.055c0.008,0.019 0.014,0.043 0.02,0.072c0.005,0.029 0.008,0.058 0.008,0.089c0,0.047 -0.006,0.092 -0.019,0.133c-0.013,0.042 -0.031,0.077 -0.054,0.108c-0.023,0.03 -0.049,0.056 -0.079,0.078c-0.031,0.022 -0.064,0.038 -0.099,0.049c-0.036,0.011 -0.072,0.017 -0.11,0.017l-0.016,-0c-0.014,-0 -0.035,-0.001 -0.062,-0.001c-0.028,-0.001 -0.049,-0.001 -0.063,-0.001c-0.082,-0 -0.155,0.001 -0.222,0.004c-0.007,-0.016 -0.011,-0.03 -0.011,-0.043l-0,-0.69Zm0.287,0.561c0.019,-0 0.037,-0.002 0.053,-0.007c0.015,-0.004 0.028,-0.01 0.039,-0.017c0.011,-0.007 0.02,-0.016 0.028,-0.028c0.009,-0.011 0.015,-0.022 0.02,-0.034c0.004,-0.011 0.008,-0.025 0.011,-0.04c0.003,-0.015 0.005,-0.029 0.006,-0.043c0.001,-0.013 0.001,-0.029 0.001,-0.045l0,-0.03c0,-0.06 -0.012,-0.104 -0.036,-0.133c-0.023,-0.028 -0.065,-0.043 -0.124,-0.045c-0.002,0.003 -0.014,0.026 -0.016,0.029l0,0.024c0,0.004 0,0.017 -0,0.038c-0.004,0.218 0.002,0.328 0.018,0.331Z" style="fill:#eadbea;fill-rule:nonzero;"/></g><g transform="matrix(39.0893,0,0,39.0893,157.606,196.089)"><path d="M0.045,-0.066l-0,-0.658l0.422,-0.014c0.026,-0 0.05,0.001 0.073,0.005c0.023,0.003 0.046,0.009 0.069,0.018c0.023,0.009 0.043,0.02 0.06,0.035c0.016,0.014 0.03,0.033 0.04,0.056c0.01,0.023 0.016,0.05 0.016,0.081c-0,0.041 -0.009,0.074 -0.027,0.099c-0.018,0.025 -0.045,0.048 -0.081,0.067c0.042,0.012 0.074,0.032 0.096,0.061c0.022,0.029 0.033,0.065 0.033,0.109c0,0.033 -0.006,0.062 -0.018,0.088c-0.013,0.025 -0.029,0.047 -0.048,0.063c-0.02,0.016 -0.043,0.03 -0.069,0.04c-0.027,0.011 -0.053,0.019 -0.079,0.023c-0.025,0.004 -0.052,0.007 -0.079,0.007c-0.016,-0 -0.039,-0.001 -0.07,-0.001c-0.032,-0.001 -0.056,-0.001 -0.071,-0.001c-0.091,-0 -0.174,0.001 -0.25,0.004c-0.01,-0.018 -0.016,-0.045 -0.017,-0.082Zm0.28,-0.495c0,0.015 0.001,0.037 0.002,0.066c0.001,0.029 0.001,0.051 0.001,0.065c0,0.006 0.004,0.01 0.012,0.011c0.004,-0.001 0.012,-0.002 0.024,-0.003c0.011,-0.002 0.02,-0.003 0.026,-0.004c0.007,-0.001 0.015,-0.003 0.024,-0.007c0.009,-0.004 0.016,-0.008 0.022,-0.013c0.005,-0.005 0.009,-0.013 0.013,-0.023c0.004,-0.01 0.006,-0.022 0.006,-0.035c0,-0.049 -0.034,-0.074 -0.102,-0.074c-0.014,0.002 -0.022,0.004 -0.024,0.007c-0.003,0.002 -0.004,0.006 -0.004,0.01Zm0.009,0.373c-0,0.024 0.001,0.036 0.004,0.036l0.016,-0c0.012,-0 0.023,-0.001 0.032,-0.002c0.01,-0 0.02,-0.002 0.031,-0.006c0.01,-0.003 0.019,-0.007 0.025,-0.013c0.007,-0.006 0.012,-0.014 0.017,-0.024c0.005,-0.011 0.007,-0.023 0.007,-0.037c-0,-0.009 -0.001,-0.016 -0.003,-0.023c-0.001,-0.007 -0.004,-0.013 -0.007,-0.017c-0.004,-0.005 -0.008,-0.01 -0.011,-0.013c-0.003,-0.004 -0.008,-0.007 -0.015,-0.009c-0.006,-0.003 -0.011,-0.005 -0.015,-0.006c-0.004,-0.001 -0.01,-0.003 -0.019,-0.004c-0.008,-0.001 -0.014,-0.001 -0.017,-0.002c-0.004,0 -0.01,-0 -0.019,-0.001c-0.008,-0 -0.014,-0.001 -0.016,-0.001l-0,0.019c-0.001,0.004 -0.002,0.016 -0.005,0.036c-0.003,0.021 -0.005,0.037 -0.005,0.049l-0,0.018Z" style="fill:#eadbea;fill-rule:nonzero;"/></g><g transform="matrix(39.0893,0,0,39.0893,187.572,196.089)"><path d="M0.05,-0.652c-0,-0.053 0.005,-0.083 0.016,-0.089c0.004,0 0.008,0.001 0.014,0.001l0.016,-0c0.01,-0 0.026,-0.001 0.05,-0.001c0.023,-0.001 0.04,-0.001 0.052,-0.001c0.046,-0 0.084,0.002 0.112,0.005c0.029,0.004 0.045,0.011 0.048,0.021l-0.005,0.504l0.01,0c0.026,-0.001 0.045,-0.002 0.055,-0.002c0.01,0.001 0.03,0.001 0.057,0.002c0.028,0.001 0.055,0.002 0.081,0.002c0.021,0 0.037,0.001 0.047,0.004c0.01,0.002 0.015,0.007 0.015,0.015l0,0.187c-0.004,0.012 -0.077,0.018 -0.218,0.018l-0.338,-0c-0.007,-0.012 -0.011,-0.03 -0.011,-0.055l-0,-0.139c-0,-0.04 0,-0.101 0.001,-0.18c0,-0.08 0.001,-0.14 0.001,-0.181c-0,-0.008 -0.001,-0.024 -0.002,-0.05c-0.001,-0.026 -0.001,-0.046 -0.001,-0.061Z" style="fill:#eadbea;fill-rule:nonzero;"/></g><g transform="matrix(39.0893,0,0,39.0893,211.697,196.089)"><path d="M0.012,-0.367l-0,-0.054c0.003,-0.045 0.013,-0.087 0.03,-0.125c0.016,-0.037 0.037,-0.069 0.063,-0.095c0.025,-0.025 0.055,-0.047 0.088,-0.065c0.034,-0.018 0.069,-0.03 0.106,-0.039c0.036,-0.008 0.074,-0.012 0.113,-0.012c0.022,0 0.044,0.002 0.067,0.006c0.024,0.003 0.048,0.009 0.074,0.017c0.026,0.007 0.051,0.019 0.075,0.034c0.024,0.015 0.044,0.033 0.06,0.054c0.032,0.039 0.055,0.08 0.07,0.123c0.014,0.043 0.021,0.091 0.021,0.144c0.001,0.11 -0.023,0.199 -0.072,0.266l-0.021,0.029c-0.019,0.026 -0.046,0.048 -0.082,0.065c-0.035,0.018 -0.07,0.03 -0.105,0.036c-0.035,0.007 -0.071,0.01 -0.106,0.01c-0.042,0 -0.081,-0.004 -0.117,-0.012c-0.035,-0.009 -0.066,-0.02 -0.091,-0.035c-0.026,-0.014 -0.049,-0.031 -0.069,-0.052c-0.02,-0.02 -0.037,-0.042 -0.05,-0.065c-0.013,-0.023 -0.023,-0.047 -0.032,-0.074c-0.008,-0.027 -0.014,-0.053 -0.017,-0.078c-0.004,-0.025 -0.005,-0.051 -0.005,-0.078Zm0.388,-0.194c-0.013,0 -0.025,0.004 -0.035,0.01c-0.011,0.006 -0.02,0.013 -0.026,0.022c-0.007,0.009 -0.013,0.021 -0.018,0.036c-0.005,0.014 -0.008,0.028 -0.01,0.04c-0.003,0.012 -0.005,0.026 -0.006,0.045c-0.001,0.018 -0.002,0.032 -0.002,0.042c-0,0.009 -0,0.022 -0,0.038c-0,0.015 0,0.029 0.001,0.043c0.002,0.013 0.004,0.027 0.008,0.043c0.004,0.015 0.008,0.028 0.014,0.039c0.006,0.011 0.015,0.021 0.025,0.028c0.011,0.008 0.023,0.012 0.037,0.013c0.014,-0 0.027,-0.002 0.038,-0.007c0.011,-0.005 0.02,-0.011 0.028,-0.018c0.007,-0.008 0.013,-0.017 0.019,-0.03c0.005,-0.012 0.009,-0.024 0.012,-0.035c0.002,-0.012 0.005,-0.026 0.006,-0.043c0.001,-0.017 0.002,-0.031 0.003,-0.044c-0,-0.012 0,-0.027 0,-0.046c0,-0.013 -0,-0.026 -0.001,-0.038c-0.001,-0.012 -0.002,-0.025 -0.004,-0.039c-0.002,-0.014 -0.005,-0.027 -0.01,-0.038c-0.005,-0.011 -0.01,-0.021 -0.017,-0.031c-0.006,-0.009 -0.015,-0.017 -0.025,-0.022c-0.011,-0.005 -0.023,-0.008 -0.037,-0.008Z" style="fill:#eadbea;fill-rule:nonzero;"/></g><g transform="matrix(39.0893,0,0,39.0893,243.076,196.089)"><path d="M0.746,-0.262c-0.005,0.049 -0.018,0.092 -0.038,0.13c-0.021,0.038 -0.047,0.068 -0.078,0.092c-0.032,0.023 -0.068,0.041 -0.108,0.053c-0.04,0.012 -0.084,0.018 -0.131,0.018c-0.045,0 -0.085,-0.005 -0.121,-0.014c-0.037,-0.01 -0.068,-0.023 -0.093,-0.038c-0.025,-0.016 -0.047,-0.036 -0.066,-0.059c-0.019,-0.023 -0.035,-0.046 -0.046,-0.071c-0.011,-0.024 -0.021,-0.05 -0.028,-0.079c-0.007,-0.029 -0.011,-0.056 -0.014,-0.081c-0.002,-0.025 -0.003,-0.051 -0.003,-0.078l-0,-0.043c0.003,-0.047 0.014,-0.09 0.033,-0.128c0.019,-0.038 0.042,-0.068 0.069,-0.092c0.027,-0.023 0.058,-0.042 0.092,-0.058c0.035,-0.015 0.069,-0.026 0.102,-0.032c0.033,-0.006 0.066,-0.009 0.098,-0.009c0.052,0 0.099,0.006 0.139,0.019c0.04,0.012 0.073,0.03 0.098,0.053c0.026,0.023 0.046,0.049 0.06,0.078c0.014,0.03 0.023,0.063 0.027,0.099l0,0.047c0,0.01 -0.036,0.016 -0.107,0.016c-0.017,-0 -0.041,-0.001 -0.071,-0.001c-0.03,-0.001 -0.05,-0.001 -0.059,-0.001c-0.002,-0 -0.013,0.001 -0.015,0.001c-0.008,-0 -0.015,-0.004 -0.019,-0.011c-0.004,-0.007 -0.007,-0.015 -0.009,-0.026c-0.001,-0.01 -0.003,-0.02 -0.005,-0.03c-0.002,-0.01 -0.007,-0.018 -0.013,-0.025c-0.007,-0.007 -0.016,-0.011 -0.028,-0.011c-0.012,0 -0.022,0.002 -0.031,0.006c-0.008,0.004 -0.015,0.01 -0.021,0.018c-0.005,0.009 -0.009,0.017 -0.013,0.025c-0.003,0.009 -0.005,0.02 -0.007,0.033c-0.001,0.014 -0.002,0.025 -0.003,0.034c-0,0.01 -0.001,0.022 -0.001,0.038c-0,0.015 -0.001,0.026 -0.001,0.034c-0,0.003 -0,0.011 -0.001,0.021c-0.001,0.01 -0.001,0.019 -0.001,0.025c0,0.081 0.021,0.123 0.064,0.125c0.012,0 0.022,-0.004 0.029,-0.012c0.008,-0.009 0.013,-0.018 0.016,-0.029c0.002,-0.01 0.006,-0.021 0.009,-0.033c0.004,-0.011 0.008,-0.019 0.012,-0.023l0.266,-0c0.01,0.001 0.016,0.007 0.017,0.019Z" style="fill:#eadbea;fill-rule:nonzero;"/></g><g transform="matrix(39.0893,0,0,39.0893,272.774,196.089)"><path d="M0.078,0.016c-0.007,-0 -0.012,-0.001 -0.016,-0.003c-0.004,-0.001 -0.006,-0.003 -0.008,-0.005c-0.001,-0.002 -0.003,-0.005 -0.005,-0.011l-0,-0.694c-0,-0.007 -0,-0.013 0,-0.016c0,-0.003 0.001,-0.007 0.002,-0.011c0.001,-0.005 0.002,-0.008 0.004,-0.01c0.003,-0.001 0.006,-0.003 0.009,-0.004c0.004,-0.002 0.009,-0.002 0.015,-0.002l0.2,-0c0.047,-0 0.071,0.006 0.071,0.017l-0,0.001c-0.002,0.121 -0.002,0.212 -0.002,0.271l0.137,-0.286l0.101,0.001c0.138,-0 0.207,0.003 0.207,0.009c-0,0.002 -0.001,0.002 -0.002,0.002c-0.063,0.114 -0.127,0.228 -0.192,0.34l-0,0.014l0.02,0.013l0.204,0.351c-0,0.005 -0.004,0.011 -0.011,0.017l-0.314,-0l-0.14,-0.273c-0.002,0.018 -0.003,0.044 -0.004,0.078c-0.001,0.035 -0.002,0.057 -0.002,0.068l-0,0.115c-0.003,0.012 -0.022,0.018 -0.059,0.018l-0.215,-0Z" style="fill:#eadbea;fill-rule:nonzero;"/></g><g transform="matrix(39.0893,0,0,39.0893,164.153,235.179)"><path d="M-0.017,-0.72c-0,-0.01 0.005,-0.014 0.017,-0.014c0.031,-0 0.077,-0.001 0.138,-0.001c0.061,-0.001 0.106,-0.001 0.136,-0.001c0.009,-0 0.017,0.004 0.023,0.013l0.084,0.487c0.006,-0.032 0.015,-0.076 0.028,-0.132c0.014,-0.057 0.022,-0.095 0.026,-0.113l0.049,-0.245c0.002,-0.007 0.069,-0.011 0.2,-0.011l0.078,-0c0.006,0.002 0.01,0.008 0.012,0.016l-0.109,0.396c-0.003,0.009 -0.007,0.028 -0.013,0.058c-0.007,0.03 -0.013,0.059 -0.019,0.087c-0.007,0.027 -0.014,0.056 -0.022,0.086c-0.008,0.03 -0.017,0.054 -0.026,0.074c-0.01,0.02 -0.018,0.031 -0.027,0.034c-0.012,-0 -0.029,-0.001 -0.052,-0.002c-0.023,-0.001 -0.041,-0.001 -0.052,-0.001l-0.036,-0c-0.022,0.002 -0.046,0.003 -0.072,0.004c-0.026,0 -0.054,0.001 -0.084,0.001c-0.029,0 -0.053,0.001 -0.071,0.002l-0.208,-0.738Z" style="fill:#eadbea;fill-rule:nonzero;"/></g><g transform="matrix(39.0893,0,0,39.0893,193.813,235.179)"><path d="M0.04,0.013c0.001,-0.095 0.004,-0.164 0.007,-0.208c-0,-0.137 0.002,-0.276 0.006,-0.416c-0.002,-0.028 -0.002,-0.048 -0.002,-0.061l-0,-0.015c-0.002,-0.014 -0.002,-0.026 -0.002,-0.035c-0,-0.006 0.003,-0.011 0.009,-0.016c0.053,0.004 0.134,0.006 0.244,0.006c0.026,-0 0.044,-0.001 0.053,-0.002l0,0.747l-0.315,-0Z" style="fill:#eadbea;fill-rule:nonzero;"/></g><g transform="matrix(39.0893,0,0,39.0893,209.884,235.179)"><path d="M0.052,-0.717c-0,-0.003 0.002,-0.007 0.006,-0.009c0.004,-0.003 0.01,-0.005 0.018,-0.007c0.007,-0.001 0.015,-0.002 0.023,-0.003c0.008,-0.001 0.017,-0.002 0.028,-0.002c0.011,-0.001 0.02,-0.001 0.027,-0.001c0.007,0 0.016,0 0.025,0c0.009,0.001 0.015,0.001 0.016,0.001l0.055,-0c0.011,-0 0.026,-0.001 0.045,-0.001c0.02,-0.001 0.034,-0.001 0.043,-0.001c0.155,-0 0.266,0.026 0.333,0.08l0.017,0.015c0.006,0.006 0.012,0.012 0.019,0.021c0.007,0.008 0.015,0.021 0.025,0.037c0.01,0.017 0.019,0.035 0.027,0.055c0.008,0.019 0.014,0.043 0.02,0.072c0.005,0.029 0.008,0.058 0.008,0.089c0,0.047 -0.006,0.092 -0.019,0.133c-0.013,0.042 -0.031,0.077 -0.054,0.108c-0.023,0.03 -0.049,0.056 -0.079,0.078c-0.031,0.022 -0.064,0.038 -0.099,0.049c-0.036,0.011 -0.072,0.017 -0.11,0.017l-0.016,-0c-0.014,-0 -0.035,-0.001 -0.062,-0.001c-0.028,-0.001 -0.049,-0.001 -0.063,-0.001c-0.082,-0 -0.155,0.001 -0.222,0.004c-0.007,-0.016 -0.011,-0.03 -0.011,-0.043l-0,-0.69Zm0.287,0.561c0.019,-0 0.037,-0.002 0.053,-0.007c0.015,-0.004 0.028,-0.01 0.039,-0.017c0.011,-0.007 0.02,-0.016 0.028,-0.028c0.009,-0.011 0.015,-0.022 0.02,-0.034c0.004,-0.011 0.008,-0.025 0.011,-0.04c0.003,-0.015 0.005,-0.029 0.006,-0.043c0.001,-0.013 0.001,-0.029 0.001,-0.045l0,-0.03c0,-0.06 -0.012,-0.104 -0.036,-0.133c-0.023,-0.028 -0.065,-0.043 -0.124,-0.045c-0.002,0.003 -0.014,0.026 -0.016,0.029l0,0.024c0,0.004 0,0.017 -0,0.038c-0.004,0.218 0.002,0.328 0.018,0.331Z" style="fill:#eadbea;fill-rule:nonzero;"/></g><g transform="matrix(39.0893,0,0,39.0893,241.339,235.179)"><path d="M0.045,-0.018l-0,-0.018c-0,-0.056 0.001,-0.138 0.002,-0.247c0.001,-0.108 0.002,-0.191 0.002,-0.246l-0,-0.202l0.568,-0l0,0.175c0,0.001 0,0.004 -0,0.007c-0.001,0.003 -0.001,0.006 -0.002,0.007c-0.001,0.001 -0.002,0.003 -0.003,0.006c-0.002,0.002 -0.004,0.004 -0.006,0.005c-0.002,0.001 -0.004,0.002 -0.007,0.002c-0.004,0.001 -0.007,0.002 -0.011,0.002l-0.014,-0c-0.084,-0 -0.161,-0.002 -0.23,-0.004c-0.001,0.005 -0.002,0.013 -0.003,0.024c-0.002,0.011 -0.003,0.02 -0.004,0.029c-0.001,0.008 -0.001,0.016 -0.001,0.024l0.232,-0c0.01,-0 0.017,0.001 0.02,0.004c0.003,0.002 0.005,0.007 0.005,0.012c-0,0.002 -0.001,0.014 -0.001,0.016c-0,0.016 0,0.039 0.001,0.069c0.001,0.031 0.002,0.054 0.002,0.07c-0.001,0.006 -0.004,0.01 -0.008,0.01c-0.002,-0 -0.004,-0.001 -0.005,-0.002c-0.103,0.005 -0.179,0.007 -0.228,0.007l-0.013,0l-0,0.071c0.029,-0 0.071,-0.002 0.126,-0.004c0.054,-0.003 0.095,-0.004 0.123,-0.004c0.021,-0 0.034,0.004 0.037,0.014l-0,0.037c-0,0.015 0,0.038 0.001,0.069c0.001,0.031 0.001,0.054 0.001,0.069c-0,0.017 -0.007,0.025 -0.02,0.025c-0.017,-0 -0.043,-0 -0.078,-0.001c-0.035,-0 -0.062,-0 -0.08,-0c-0.047,-0 -0.114,0.001 -0.201,0.003c-0.087,0.003 -0.15,0.004 -0.189,0.005l-0.014,-0.016c-0.001,-0.009 -0.002,-0.015 -0.002,-0.018Z" style="fill:#eadbea;fill-rule:nonzero;"/></g><g transform="matrix(39.0893,0,0,39.0893,266.266,235.179)"><path d="M0.012,-0.367l-0,-0.054c0.003,-0.045 0.013,-0.087 0.03,-0.125c0.016,-0.037 0.037,-0.069 0.063,-0.095c0.025,-0.025 0.055,-0.047 0.088,-0.065c0.034,-0.018 0.069,-0.03 0.106,-0.039c0.036,-0.008 0.074,-0.012 0.113,-0.012c0.022,0 0.044,0.002 0.067,0.006c0.024,0.003 0.048,0.009 0.074,0.017c0.026,0.007 0.051,0.019 0.075,0.034c0.024,0.015 0.044,0.033 0.06,0.054c0.032,0.039 0.055,0.08 0.07,0.123c0.014,0.043 0.021,0.091 0.021,0.144c0.001,0.11 -0.023,0.199 -0.072,0.266l-0.021,0.029c-0.019,0.026 -0.046,0.048 -0.082,0.065c-0.035,0.018 -0.07,0.03 -0.105,0.036c-0.035,0.007 -0.071,0.01 -0.106,0.01c-0.042,0 -0.081,-0.004 -0.117,-0.012c-0.035,-0.009 -0.066,-0.02 -0.091,-0.035c-0.026,-0.014 -0.049,-0.031 -0.069,-0.052c-0.02,-0.02 -0.037,-0.042 -0.05,-0.065c-0.013,-0.023 -0.023,-0.047 -0.032,-0.074c-0.008,-0.027 -0.014,-0.053 -0.017,-0.078c-0.004,-0.025 -0.005,-0.051 -0.005,-0.078Zm0.388,-0.194c-0.013,0 -0.025,0.004 -0.035,0.01c-0.011,0.006 -0.02,0.013 -0.026,0.022c-0.007,0.009 -0.013,0.021 -0.018,0.036c-0.005,0.014 -0.008,0.028 -0.01,0.04c-0.003,0.012 -0.005,0.026 -0.006,0.045c-0.001,0.018 -0.002,0.032 -0.002,0.042c-0,0.009 -0,0.022 -0,0.038c-0,0.015 0,0.029 0.001,0.043c0.002,0.013 0.004,0.027 0.008,0.043c0.004,0.015 0.008,0.028 0.014,0.039c0.006,0.011 0.015,0.021 0.025,0.028c0.011,0.008 0.023,0.012 0.037,0.013c0.014,-0 0.027,-0.002 0.038,-0.007c0.011,-0.005 0.02,-0.011 0.028,-0.018c0.007,-0.008 0.013,-0.017 0.019,-0.03c0.005,-0.012 0.009,-0.024 0.012,-0.035c0.002,-0.012 0.005,-0.026 0.006,-0.043c0.001,-0.017 0.002,-0.031 0.003,-0.044c-0,-0.012 0,-0.027 0,-0.046c0,-0.013 -0,-0.026 -0.001,-0.038c-0.001,-0.012 -0.002,-0.025 -0.004,-0.039c-0.002,-0.014 -0.005,-0.027 -0.01,-0.038c-0.005,-0.011 -0.01,-0.021 -0.017,-0.031c-0.006,-0.009 -0.015,-0.017 -0.025,-0.022c-0.011,-0.005 -0.023,-0.008 -0.037,-0.008Z" style="fill:#eadbea;fill-rule:nonzero;"/></g></g></svg>